<svg width="100%" height="20" viewBox="0 0 360 20" fill="none" xmlns="http://www.w3.org/2000/svg">
<rect width="360" height="20" fill="white"/>
<path opacity="0.4" fill-rule="evenodd" clip-rule="evenodd" d="M349.5 4.89844C351.016 4.89844 352 5.88204 352 7.39844V13.8984C352 15.4148 351.016 16.3984 349.5 16.3984H330.5C328.984 16.3984 328 15.4148 328 13.8984V7.39844C328 5.88204 328.984 4.89844 330.5 4.89844H349.5ZM349.4 5.89844C350.37 5.89844 351 6.52794 351 7.49844V13.7984C351 14.7689 350.37 15.3984 349.4 15.3984H330.6C329.63 15.3984 329 14.7689 329 13.7984V7.49844C329 6.52794 329.63 5.89844 330.6 5.89844H349.4ZM354.5 10.6484C354.5 12.3984 353 12.6484 353 12.6484V8.64844C353 8.64844 354.5 8.89844 354.5 10.6484Z" fill="#001524"/>
<path fill-rule="evenodd" clip-rule="evenodd" d="M349 6.89844C349.607 6.89844 350 7.29188 350 7.89844V13.3984C350 14.005 349.607 14.3984 349 14.3984H331C330.393 14.3984 330 14.005 330 13.3984V7.89844C330 7.29188 330.393 6.89844 331 6.89844H349Z" fill="#001524"/>
<path d="M160.178 14.6035C159.404 14.6035 158.746 14.3945 158.203 13.9766C157.66 13.5547 157.326 12.9961 157.201 12.3008H158.707C158.805 12.6211 158.984 12.875 159.246 13.0625C159.512 13.2461 159.826 13.3379 160.189 13.3379C160.807 13.3379 161.289 13.0664 161.637 12.5234C161.984 11.9766 162.158 11.2188 162.158 10.25H162.105H162.076H162.059C161.859 10.6523 161.568 10.9648 161.186 11.1875C160.803 11.4062 160.363 11.5156 159.867 11.5156C159.062 11.5156 158.396 11.25 157.869 10.7188C157.346 10.1875 157.084 9.51562 157.084 8.70312C157.084 7.83594 157.377 7.125 157.963 6.57031C158.553 6.01172 159.307 5.73242 160.225 5.73242C160.842 5.73242 161.389 5.875 161.865 6.16016C162.342 6.44531 162.723 6.85938 163.008 7.40234C163.406 8.10938 163.605 9 163.605 10.0742C163.605 11.4961 163.303 12.6074 162.697 13.4082C162.092 14.2051 161.252 14.6035 160.178 14.6035ZM159.035 9.85156C159.348 10.1602 159.746 10.3145 160.23 10.3145C160.715 10.3145 161.115 10.1602 161.432 9.85156C161.748 9.54297 161.906 9.15234 161.906 8.67969C161.906 8.20312 161.746 7.80273 161.426 7.47852C161.105 7.1543 160.709 6.99219 160.236 6.99219C159.764 6.99219 159.367 7.15234 159.047 7.47266C158.727 7.78906 158.566 8.18359 158.566 8.65625C158.566 9.14062 158.723 9.53906 159.035 9.85156ZM166.26 13.502C165.986 13.502 165.762 13.4141 165.586 13.2383C165.41 13.0625 165.322 12.8418 165.322 12.5762C165.322 12.3066 165.41 12.0859 165.586 11.9141C165.762 11.7383 165.986 11.6504 166.26 11.6504C166.537 11.6504 166.762 11.7383 166.934 11.9141C167.109 12.0859 167.197 12.3066 167.197 12.5762C167.197 12.8418 167.109 13.0625 166.934 13.2383C166.762 13.4141 166.537 13.502 166.26 13.502ZM166.26 9.10742C165.986 9.10742 165.762 9.02148 165.586 8.84961C165.41 8.67383 165.322 8.45312 165.322 8.1875C165.322 7.91797 165.41 7.69727 165.586 7.52539C165.762 7.34961 165.986 7.26172 166.26 7.26172C166.537 7.26172 166.762 7.34961 166.934 7.52539C167.109 7.69727 167.197 7.91797 167.197 8.1875C167.197 8.45312 167.109 8.67383 166.934 8.84961C166.762 9.02148 166.537 9.10742 166.26 9.10742ZM173.039 14.3984V12.8223H168.908V11.4746C169.596 10.209 170.744 8.36523 172.354 5.94336H174.486V11.5449H175.629V12.8223H174.486V14.3984H173.039ZM170.309 11.4922V11.5801H173.062V7.17383H172.98C172.066 8.52539 171.176 9.96484 170.309 11.4922ZM179.092 14.3984V7.4668H178.992L176.889 8.94336V7.49023L179.098 5.94336H180.604V14.3984H179.092ZM191.818 14.3984L191.104 12.2363H187.992L187.266 14.3984H185.736L188.736 5.94336H190.436L193.441 14.3984H191.818ZM189.504 7.55469L188.344 11.041H190.752L189.604 7.55469H189.504ZM203.625 14.3984H202.219V8.45117H202.137L199.799 14.0703H198.721L196.383 8.45117H196.301V14.3984H194.895V5.94336H196.664L199.207 12.1016H199.312L201.855 5.94336H203.625V14.3984Z" fill="#001524"/>
<path fill-rule="evenodd" clip-rule="evenodd" d="M7.06061 10.8984C7.68555 10.8984 8.09091 11.2919 8.09091 11.8984V14.3984C8.09091 15.005 7.68555 15.3984 7.06061 15.3984H6.0303C5.40536 15.3984 5 15.005 5 14.3984V11.8984C5 11.2919 5.40536 10.8984 6.0303 10.8984H7.06061ZM20.9708 5.39844C21.5957 5.39844 22.0011 5.79188 22.0011 6.39844V14.3984C22.0011 15.005 21.5957 15.3984 20.9708 15.3984H19.9405C19.3155 15.3984 18.9102 15.005 18.9102 14.3984V6.39844C18.9102 5.79188 19.3155 5.39844 19.9405 5.39844H20.9708ZM16.3333 7.39844C16.9583 7.39844 17.3636 7.79188 17.3636 8.39844V14.3984C17.3636 15.005 16.9583 15.3984 16.3333 15.3984H15.303C14.6781 15.3984 14.2727 15.005 14.2727 14.3984V8.39844C14.2727 7.79188 14.6781 7.39844 15.303 7.39844H16.3333ZM11.697 9.39844C12.3219 9.39844 12.7273 9.79188 12.7273 10.3984V14.3984C12.7273 15.005 12.3219 15.3984 11.697 15.3984H10.6667C10.0417 15.3984 9.63636 15.005 9.63636 14.3984V10.3984C9.63636 9.79188 10.0417 9.39844 10.6667 9.39844H11.697Z" fill="#001524"/>
<path fill-rule="evenodd" clip-rule="evenodd" d="M111.637 6.67577C113.852 6.67586 115.984 7.5273 117.59 9.0541C117.711 9.17197 117.904 9.17049 118.023 9.05077L119.179 7.8841C119.239 7.82338 119.273 7.74113 119.272 7.65555C119.272 7.56997 119.237 7.48811 119.176 7.4281C114.961 3.38855 108.311 3.38855 104.096 7.4281C104.035 7.48807 104.001 7.5699 104 7.65548C103.999 7.74106 104.033 7.82333 104.093 7.8841L105.25 9.05077C105.369 9.17067 105.562 9.17216 105.683 9.0541C107.289 7.5272 109.42 6.67576 111.637 6.67577ZM111.637 10.4704C112.855 10.4703 114.029 10.9228 114.931 11.74C115.053 11.856 115.246 11.8535 115.365 11.7344L116.519 10.5677C116.58 10.5065 116.614 10.4235 116.613 10.3372C116.612 10.251 116.577 10.1686 116.515 10.1087C113.767 7.55231 109.511 7.55231 106.762 10.1087C106.7 10.1686 106.665 10.251 106.664 10.3373C106.663 10.4236 106.697 10.5066 106.758 10.5677L107.912 11.7344C108.031 11.8535 108.224 11.856 108.346 11.74C109.248 10.9234 110.421 10.4709 111.637 10.4704ZM113.856 13.2544C113.918 13.1938 113.952 13.1104 113.95 13.0239C113.949 12.9374 113.911 12.8555 113.847 12.7974C112.572 11.7186 110.703 11.7186 109.428 12.7974C109.364 12.8554 109.326 12.9374 109.324 13.0239C109.322 13.1104 109.356 13.1938 109.418 13.2544L111.416 15.2701C111.474 15.3294 111.554 15.3627 111.637 15.3627C111.721 15.3627 111.801 15.3294 111.859 15.2701L113.856 13.2544Z" fill="#001524"/>
<path d="M28.1328 14.3984H27.0781V5.94336H32.2109V6.89258H28.1328V9.79883H31.877V10.7363H28.1328V14.3984ZM33.8583 14.3984V5.57422H34.8661V14.3984H33.8583ZM37.3455 16.6836C37.1854 16.6836 37.035 16.6719 36.8943 16.6484V15.7871C36.9959 15.8066 37.1365 15.8164 37.3162 15.8164C37.6092 15.8164 37.8416 15.7383 38.0135 15.582C38.1893 15.4258 38.3436 15.1582 38.4764 14.7793L38.5936 14.4043L36.2557 8.08203H37.3455L39.0799 13.2793H39.1736L40.9021 8.08203H41.9744L39.5076 14.7852C39.2381 15.5156 38.951 16.0137 38.6463 16.2793C38.3416 16.5488 37.908 16.6836 37.3455 16.6836ZM43.3288 14.3984V8.08203H44.3366V14.3984H43.3288ZM44.3308 6.59375C44.194 6.73047 44.028 6.79883 43.8327 6.79883C43.6374 6.79883 43.4714 6.73047 43.3347 6.59375C43.1979 6.45312 43.1296 6.28711 43.1296 6.0957C43.1296 5.9043 43.1979 5.74023 43.3347 5.60352C43.4714 5.46289 43.6374 5.39258 43.8327 5.39258C44.028 5.39258 44.194 5.46289 44.3308 5.60352C44.4675 5.74023 44.5358 5.9043 44.5358 6.0957C44.5358 6.28711 44.4675 6.45312 44.3308 6.59375ZM46.2418 14.3984V8.08203H47.2027V9.07812H47.2965C47.6324 8.33984 48.2652 7.9707 49.1949 7.9707C49.902 7.9707 50.4469 8.17383 50.8297 8.58008C51.2125 8.98242 51.4039 9.55859 51.4039 10.3086V14.3984H50.3961V10.5547C50.3961 9.98828 50.273 9.56836 50.027 9.29492C49.7848 9.01758 49.4117 8.87891 48.9078 8.87891C48.4 8.87891 47.9957 9.03906 47.6949 9.35938C47.398 9.67578 47.2496 10.1094 47.2496 10.6602V14.3984H46.2418ZM55.7876 13.4141C56.3696 13.4141 56.8267 13.2109 57.1587 12.8047C57.4946 12.3945 57.6626 11.8418 57.6626 11.1465C57.6626 10.4551 57.4946 9.9043 57.1587 9.49414C56.8228 9.08398 56.3657 8.87891 55.7876 8.87891C55.2095 8.87891 54.7603 9.08203 54.4399 9.48828C54.1196 9.89453 53.9595 10.4473 53.9595 11.1465C53.9595 11.8457 54.1196 12.3984 54.4399 12.8047C54.7603 13.2109 55.2095 13.4141 55.7876 13.4141ZM55.8345 16.8242C55.0806 16.8242 54.4692 16.668 54.0005 16.3555C53.5356 16.043 53.2642 15.623 53.186 15.0957H54.2524C54.3071 15.3574 54.4731 15.5645 54.7505 15.7168C55.0278 15.8691 55.3892 15.9453 55.8345 15.9453C56.4009 15.9453 56.8423 15.8125 57.1587 15.5469C57.479 15.2852 57.6392 14.9219 57.6392 14.457V13.2148H57.5454C57.3462 13.5625 57.0747 13.832 56.731 14.0234C56.3872 14.2109 55.9985 14.3047 55.5649 14.3047C54.7524 14.3047 54.1079 14.0176 53.6313 13.4434C53.1548 12.8652 52.9165 12.0996 52.9165 11.1465C52.9165 10.1934 53.1567 9.42578 53.6372 8.84375C54.1177 8.26172 54.7603 7.9707 55.5649 7.9707C56.0063 7.9707 56.4087 8.07227 56.772 8.27539C57.1353 8.47461 57.4087 8.74414 57.5923 9.08398H57.686V8.08203H58.647V14.5098C58.647 15.2168 58.3931 15.7793 57.8853 16.1973C57.3774 16.6152 56.6938 16.8242 55.8345 16.8242ZM63.9564 14.3984H60.6576V5.94336H63.892C64.6654 5.94336 65.2748 6.13281 65.7201 6.51172C66.1693 6.89062 66.3939 7.4043 66.3939 8.05273C66.3939 8.49023 66.2514 8.88477 65.9662 9.23633C65.685 9.58789 65.3412 9.80078 64.935 9.875V9.96875C65.5131 10.043 65.9721 10.2656 66.3119 10.6367C66.6518 11.0039 66.8217 11.4668 66.8217 12.0254C66.8217 12.7715 66.5678 13.3535 66.06 13.7715C65.556 14.1895 64.8549 14.3984 63.9564 14.3984ZM61.7123 6.875V9.58789H63.3998C64.685 9.58789 65.3275 9.13672 65.3275 8.23438C65.3275 7.80469 65.181 7.4707 64.8881 7.23242C64.599 6.99414 64.1928 6.875 63.6693 6.875H61.7123ZM61.7123 13.4668H63.7982C64.435 13.4668 64.9174 13.3398 65.2455 13.0859C65.5736 12.832 65.7377 12.4609 65.7377 11.9727C65.7377 10.9883 65.058 10.4961 63.6986 10.4961H61.7123V13.4668ZM68.4222 14.3984V8.08203H69.43V14.3984H68.4222ZM69.4241 6.59375C69.2874 6.73047 69.1214 6.79883 68.9261 6.79883C68.7308 6.79883 68.5647 6.73047 68.428 6.59375C68.2913 6.45312 68.2229 6.28711 68.2229 6.0957C68.2229 5.9043 68.2913 5.74023 68.428 5.60352C68.5647 5.46289 68.7308 5.39258 68.9261 5.39258C69.1214 5.39258 69.2874 5.46289 69.4241 5.60352C69.5608 5.74023 69.6292 5.9043 69.6292 6.0957C69.6292 6.28711 69.5608 6.45312 69.4241 6.59375ZM71.1887 9.81055C71.1887 9.28711 71.4133 8.84961 71.8625 8.49805C72.3117 8.14648 72.8723 7.9707 73.5441 7.9707C74.2043 7.9707 74.7492 8.12305 75.1789 8.42773C75.6086 8.73242 75.8566 9.14453 75.923 9.66406H74.9269C74.8566 9.40625 74.7004 9.20312 74.4582 9.05469C74.2199 8.90234 73.9133 8.82617 73.5383 8.82617C73.1594 8.82617 72.841 8.91406 72.5832 9.08984C72.3293 9.26562 72.2023 9.49219 72.2023 9.76953C72.2023 9.98438 72.2902 10.1641 72.466 10.3086C72.6457 10.4492 72.923 10.5645 73.298 10.6543L74.2707 10.8887C74.8723 11.0332 75.3156 11.2422 75.6008 11.5156C75.8898 11.7891 76.0344 12.1504 76.0344 12.5996C76.0344 13.1582 75.7941 13.6172 75.3137 13.9766C74.8332 14.332 74.2297 14.5098 73.5031 14.5098C72.8 14.5098 72.2238 14.3535 71.7746 14.041C71.3254 13.7285 71.0734 13.3105 71.0187 12.7871H72.0559C72.1418 13.0605 72.3117 13.2754 72.5656 13.4316C72.8195 13.584 73.1437 13.6602 73.5383 13.6602C73.9641 13.6602 74.3137 13.5684 74.5871 13.3848C74.8605 13.2012 74.9973 12.9648 74.9973 12.6758C74.9973 12.2461 74.6633 11.9492 73.9953 11.7852L72.9113 11.5215C72.3137 11.377 71.8762 11.1699 71.5988 10.9004C71.3254 10.627 71.1887 10.2637 71.1887 9.81055ZM82.3224 13.6367C81.8028 14.2188 81.0938 14.5098 80.1954 14.5098C79.297 14.5098 78.586 14.2188 78.0626 13.6367C77.5431 13.0508 77.2833 12.252 77.2833 11.2402C77.2833 10.2246 77.5431 9.42578 78.0626 8.84375C78.5821 8.26172 79.2931 7.9707 80.1954 7.9707C81.0977 7.9707 81.8087 8.26172 82.3282 8.84375C82.8477 9.42578 83.1075 10.2246 83.1075 11.2402C83.1075 12.252 82.8458 13.0508 82.3224 13.6367ZM78.8126 12.9863C79.1368 13.3965 79.5977 13.6016 80.1954 13.6016C80.7931 13.6016 81.254 13.3965 81.5782 12.9863C81.9024 12.5723 82.0645 11.9902 82.0645 11.2402C82.0645 10.4902 81.9024 9.91016 81.5782 9.5C81.254 9.08594 80.7931 8.87891 80.1954 8.87891C79.5977 8.87891 79.1368 9.08594 78.8126 9.5C78.4884 9.91016 78.3263 10.4902 78.3263 11.2402C78.3263 11.9902 78.4884 12.5723 78.8126 12.9863ZM84.6728 14.3984V8.08203H85.6338V9.07812H85.7275C86.0635 8.33984 86.6963 7.9707 87.626 7.9707C88.333 7.9707 88.8779 8.17383 89.2607 8.58008C89.6435 8.98242 89.835 9.55859 89.835 10.3086V14.3984H88.8271V10.5547C88.8271 9.98828 88.7041 9.56836 88.458 9.29492C88.2158 9.01758 87.8428 8.87891 87.3389 8.87891C86.831 8.87891 86.4268 9.03906 86.126 9.35938C85.8291 9.67578 85.6807 10.1094 85.6807 10.6602V14.3984H84.6728ZM91.5175 9.81055C91.5175 9.28711 91.7421 8.84961 92.1913 8.49805C92.6405 8.14648 93.2011 7.9707 93.8729 7.9707C94.5331 7.9707 95.078 8.12305 95.5077 8.42773C95.9374 8.73242 96.1854 9.14453 96.2518 9.66406H95.2558C95.1854 9.40625 95.0292 9.20312 94.787 9.05469C94.5487 8.90234 94.2421 8.82617 93.8671 8.82617C93.4882 8.82617 93.1698 8.91406 92.912 9.08984C92.6581 9.26562 92.5311 9.49219 92.5311 9.76953C92.5311 9.98438 92.619 10.1641 92.7948 10.3086C92.9745 10.4492 93.2518 10.5645 93.6268 10.6543L94.5995 10.8887C95.2011 11.0332 95.6444 11.2422 95.9296 11.5156C96.2186 11.7891 96.3632 12.1504 96.3632 12.5996C96.3632 13.1582 96.1229 13.6172 95.6425 13.9766C95.162 14.332 94.5585 14.5098 93.8319 14.5098C93.1288 14.5098 92.5526 14.3535 92.1034 14.041C91.6542 13.7285 91.4022 13.3105 91.3475 12.7871H92.3847C92.4706 13.0605 92.6405 13.2754 92.8944 13.4316C93.1483 13.584 93.4725 13.6602 93.8671 13.6602C94.2929 13.6602 94.6425 13.5684 94.9159 13.3848C95.1893 13.2012 95.3261 12.9648 95.3261 12.6758C95.3261 12.2461 94.9921 11.9492 94.3241 11.7852L93.2401 11.5215C92.6425 11.377 92.205 11.1699 91.9276 10.9004C91.6542 10.627 91.5175 10.2637 91.5175 9.81055Z" fill="#001524"/>
</svg>
